<svg xmlns="http://www.w3.org/2000/svg" viewBox="0 0 512 512" width="512" height="512">
  <defs>
    <linearGradient id="bg" x1="0" y1="0" x2="1" y2="1">
      <stop offset="0" stop-color="#92400E"/>
      <stop offset="1" stop-color="#D97706"/>
    </linearGradient>
  </defs>

  <!-- Rounded square background -->
  <rect width="512" height="512" rx="151" fill="url(#bg)"/>

  <!-- House icon -->
  <g fill="none" stroke="#fff" stroke-width="20" stroke-linecap="round" stroke-linejoin="round">
    <path d="M120 370V175l136-68 136 68v195"/>
    <path d="M200 370v-110h112v110"/>
    <path d="M120 370h272"/>
  </g>

  <!-- Chat badge (bottom-right) -->
  <g transform="translate(352, 352)">
    <rect width="148" height="148" rx="46" fill="#fff"/>
    <g fill="none" stroke="#D97706" stroke-width="6" stroke-linecap="round" stroke-linejoin="round">
      <path d="M104 38a14 14 0 0 1 14 14v38a14 14 0 0 1-14 14H80l-24 14V104H44a14 14 0 0 1-14-14V52a14 14 0 0 1 14-14z"/>
      <path d="M56 82a24 24 0 0 0 24 0"/>
    </g>
  </g>
</svg>
