<svg xmlns="http://www.w3.org/2000/svg" viewBox="0 0 340 80" width="680" height="160">
  <defs>
    <linearGradient id="bg" x1="0" y1="0" x2="1" y2="1">
      <stop offset="0" stop-color="#92400E"/>
      <stop offset="1" stop-color="#D97706"/>
    </linearGradient>
  </defs>

  <!-- Icon background -->
  <rect width="64" height="64" rx="19" y="8" fill="url(#bg)"/>

  <!-- House -->
  <g fill="none" stroke="#fff" stroke-width="2.5" stroke-linecap="round" stroke-linejoin="round">
    <path d="M16 50V26l16-8 16 8v24"/>
    <path d="M25 50v-14h6v14"/>
    <path d="M16 50h32"/>
  </g>

  <!-- Chat badge -->
  <g transform="translate(44, 48)">
    <rect width="24" height="24" rx="7" fill="#fff" filter="drop-shadow(0 2px 6px rgba(0,0,0,0.2))"/>
    <g transform="translate(5, 4.5)" fill="none" stroke="#D97706" stroke-width="1.6" stroke-linecap="round" stroke-linejoin="round">
      <path d="M11.5 1.5a2 2 0 0 1 2 2v5.3a2 2 0 0 1-2 2H8.2l-3.3 2v-2H3.5a2 2 0 0 1-2-2V3.5a2 2 0 0 1 2-2z"/>
      <path d="M5 8.2a3.3 3.3 0 0 0 3.3 0"/>
    </g>
  </g>

  <!-- PropBot text -->
  <text x="82" y="52" font-family="Inter, -apple-system, BlinkMacSystemFont, 'Segoe UI', system-ui, sans-serif" font-weight="900" font-size="36" letter-spacing="-0.7">
    <tspan fill="#0B1A3E">Prop</tspan><tspan fill="#D97706">Bot</tspan>
  </text>
</svg>
